# xmcd
#
# Track frame offsets:
#	200
#	18255
#	31670
#	47572
#	62690
#	74250
#	88200
#	105912
#	119722
#	135670
#	150895
#	162392
#	175482
#	186860
#	199455
#	212040
#	226372
#	239625
#	251370
#	264500
#	277100
#	289077
#
# Disc length: 4060 seconds
# Revision: 2
# Processed by: cddbd v1.5.2PL0 Copyright (c) Steve Scherf et al.
# Submitted via: dBpowerAMP V12.0
#
DISCID=400fda16
DTITLE=Cristy Lane - Country Classics Vol. II and Vol. III
DYEAR=1989
DGENRE=Country
TTITLE0=I Have a Dream
TTITLE1=I'd Rather be Sorry
TTITLE2=Love of The Common People
TTITLE3=Makin' Believe
TTITLE4=Before The Next Tear Drop Falls
TTITLE5=It's Now or Never
TTITLE6=Rainsong
TTITLE7=Rose Garden
TTITLE8=Too Soon to Know
TTITLE9=Simple Little Words
TTITLE10=Misty Blue
TTITLE11=Paper Roses
TTITLE12=Let me Down Easy
TTITLE13=Sweet Sexy Eyes
TTITLE14=He's Got The Whole World in His Hands
TTITLE15=Footprints in The Sand
TTITLE16=I Fall to Pieces
TTITLE17=Penny Arcade
TTITLE18=Sweet Dreams
TTITLE19=Send me The Pillow
TTITLE20=I Can't Help it
TTITLE21=End of The World
EXTD=
EXTT0=
EXTT1=
EXTT2=
EXTT3=
EXTT4=
EXTT5=
EXTT6=
EXTT7=
EXTT8=
EXTT9=
EXTT10=
EXTT11=
EXTT12=
EXTT13=
EXTT14=
EXTT15=
EXTT16=
EXTT17=
EXTT18=
EXTT19=
EXTT20=
EXTT21=
PLAYORDER=
